<!DOCTYPE svg PUBLIC "-//W3C//DTD SVG 20010904//EN" "http://www.w3.org/TR/2001/REC-SVG-20010904/DTD/svg10.dtd">
<svg version="1.0" xmlns="http://www.w3.org/2000/svg" width="560px" height="315px" viewBox="0 0 5600 3150" preserveAspectRatio="xMidYMid meet">
<g id="layer101" fill="#001ea2" stroke="none">
 <path d="M0 1575 l0 -1575 2800 0 2800 0 0 1575 0 1575 -2800 0 -2800 0 0 -1575z"/>
 </g>
<g id="layer102" fill="#1633aa" stroke="none">
 <path d="M0 1575 l0 -1575 2800 0 2800 0 0 1575 0 1575 -2800 0 -2800 0 0 -1575z m1605 875 c3 -5 -1 -10 -10 -10 -9 0 -13 5 -10 10 3 6 8 10 10 10 2 0 7 -4 10 -10z m80 0 c3 -5 -1 -10 -10 -10 -9 0 -13 5 -10 10 3 6 8 10 10 10 2 0 7 -4 10 -10z m-128 -17 c-4 -3 -10 -3 -14 0 -3 4 0 7 7 7 7 0 10 -3 7 -7z m180 0 c-4 -3 -10 -3 -14 0 -3 4 0 7 7 7 7 0 10 -3 7 -7z m-237 -27 c0 -3 -5 -8 -12 -12 -7 -4 -8 -3 -4 4 7 12 16 16 16 8z m177 -3 c-10 -9 -68 -10 -74 -1 -2 5 15 8 38 8 23 0 39 -3 36 -7z m158 -23 c10 -11 16 -20 13 -20 -3 0 -13 9 -23 20 -10 11 -16 20 -13 20 3 0 13 -9 23 -20z m32 -67 c-4 -3 -7 0 -7 7 0 7 3 10 7 7 3 -4 3 -10 0 -14z m-50 -35 c-3 -7 -5 -2 -5 12 0 14 2 19 5 13 2 -7 2 -19 0 -25z m-1022 -48 c13 -5 -25 -9 -102 -9 -76 -1 -123 3 -123 9 0 12 196 12 225 0z m490 0 c4 -6 -5 -10 -20 -10 -15 0 -24 4 -20 10 3 6 12 10 20 10 8 0 17 -4 20 -10z m912 3 c-4 -3 -10 -3 -14 0 -3 4 0 7 7 7 7 0 10 -3 7 -7z m430 1 c-3 -3 -12 -4 -19 -1 -8 3 -5 6 6 6 11 1 17 -2 13 -5z m440 -1 c-4 -3 -10 -3 -14 0 -3 4 0 7 7 7 7 0 10 -3 7 -7z m-1432 -13 c17 -7 14 -9 -13 -9 -20 -1 -31 3 -27 9 7 12 13 12 40 0z m482 3 c-4 -3 -10 -3 -14 0 -3 4 0 7 7 7 7 0 10 -3 7 -7z m420 0 c-4 -3 -10 -3 -14 0 -3 4 0 7 7 7 7 0 10 -3 7 -7z m600 0 c-4 -3 -10 -3 -14 0 -3 4 0 7 7 7 7 0 10 -3 7 -7z m-2270 -10 c-4 -3 -10 -3 -14 0 -3 4 0 7 7 7 7 0 10 -3 7 -7z m900 0 c-4 -3 -10 -3 -14 0 -3 4 0 7 7 7 7 0 10 -3 7 -7z m984 -20 c13 -16 12 -17 -3 -4 -17 13 -22 21 -14 21 2 0 10 -8 17 -17z m-701 4 c0 -2 -10 -12 -22 -23 l-23 -19 19 23 c18 21 26 27 26 19z m-1095 -17 c3 -5 4 -10 1 -10 -3 0 -8 5 -11 10 -3 6 -4 10 -1 10 3 0 8 -4 11 -10z m1302 3 c-4 -3 -10 -3 -14 0 -3 4 0 7 7 7 7 0 10 -3 7 -7z m300 0 c-4 -3 -10 -3 -14 0 -3 4 0 7 7 7 7 0 10 -3 7 -7z m-1720 -10 c-4 -3 -10 -3 -14 0 -3 4 0 7 7 7 7 0 10 -3 7 -7z m673 3 c0 -3 -5 -8 -12 -12 -7 -4 -8 -3 -4 4 7 12 16 16 16 8z m115 -6 c-3 -5 -12 -10 -20 -10 -8 0 -17 5 -20 10 -4 6 5 10 20 10 15 0 24 -4 20 -10z m172 3 c-4 -3 -10 -3 -14 0 -3 4 0 7 7 7 7 0 10 -3 7 -7z m-62 -12 c-18 -7 -55 -4 -55 5 0 2 17 4 38 3 28 0 32 -2 17 -8z m1225 -7 c0 -8 -5 -12 -10 -9 -6 4 -8 11 -5 16 9 14 15 11 15 -7z m-1965 -4 c3 -5 4 -10 1 -10 -3 0 -8 5 -11 10 -3 6 -4 10 -1 10 3 0 8 -4 11 -10z m2016 -333 c-8 -8 -11 35 -9 163 l1 175 10 -163 c7 -119 6 -167 -2 -175z m-1524 286 c-4 -3 -7 0 -7 7 0 7 3 10 7 7 3 -4 3 -10 0 -14z m1290 0 c-4 -3 -7 0 -7 7 0 7 3 10 7 7 3 -4 3 -10 0 -14z m-790 -10 c-4 -3 -7 0 -7 7 0 7 3 10 7 7 3 -4 3 -10 0 -14z m972 -135 c-1 -109 -4 -141 -10 -113 -16 78 -11 265 8 265 2 0 2 -69 2 -152z m-1454 122 c3 -5 4 -10 1 -10 -3 0 -8 5 -11 10 -3 6 -4 10 -1 10 3 0 8 -4 11 -10z m155 -10 c11 -7 6 -10 -20 -10 -26 0 -31 3 -20 10 8 5 17 10 20 10 3 0 12 -5 20 -10z m317 -27 c-4 -3 -7 0 -7 7 0 7 3 10 7 7 3 -4 3 -10 0 -14z m783 4 c0 -2 -10 -12 -22 -23 l-23 -19 19 23 c18 21 26 27 26 19z m-733 -29 c-3 -8 -6 -5 -6 6 -1 11 2 17 5 13 3 -3 4 -12 1 -19z m-497 8 c0 -2 -8 -10 -17 -17 -16 -13 -17 -12 -4 4 13 16 21 21 21 13z m-459 -138 c-8 -30 -9 -28 -9 27 0 50 1 56 9 33 7 -17 7 -38 0 -60z m1147 75 c-32 -2 -86 -2 -120 0 -35 2 -9 3 57 3 66 0 94 -1 63 -3z m-731 -20 c-4 -3 -7 0 -7 7 0 7 3 10 7 7 3 -4 3 -10 0 -14z m50 0 c-4 -3 -7 0 -7 7 0 7 3 10 7 7 3 -4 3 -10 0 -14z m443 -9 c0 -8 -5 -12 -10 -9 -6 4 -8 11 -5 16 9 14 15 11 15 -7z m55 7 c3 -5 1 -12 -5 -16 -5 -3 -10 1 -10 9 0 18 6 21 15 7z m-268 -18 c-4 -3 -7 0 -7 7 0 7 3 10 7 7 3 -4 3 -10 0 -14z m55 -25 c-10 -22 -11 -21 -11 12 -1 26 2 31 11 22 8 -8 8 -17 0 -34z m465 25 c-4 -3 -7 0 -7 7 0 7 3 10 7 7 3 -4 3 -10 0 -14z m50 -20 c-4 -3 -7 0 -7 7 0 7 3 10 7 7 3 -4 3 -10 0 -14z m-850 -30 c-4 -3 -7 0 -7 7 0 7 3 10 7 7 3 -4 3 -10 0 -14z m50 0 c-4 -3 -7 0 -7 7 0 7 3 10 7 7 3 -4 3 -10 0 -14z m230 0 c-4 -3 -7 0 -7 7 0 7 3 10 7 7 3 -4 3 -10 0 -14z m-760 -40 c-4 -3 -7 0 -7 7 0 7 3 10 7 7 3 -4 3 -10 0 -14z m1243 -7 c0 -3 -5 -8 -12 -12 -7 -4 -8 -3 -4 4 7 12 16 16 16 8z m497 -23 c-4 -3 -7 0 -7 7 0 7 3 10 7 7 3 -4 3 -10 0 -14z m-1690 -10 c-4 -3 -7 0 -7 7 0 7 3 10 7 7 3 -4 3 -10 0 -14z m1143 1 c0 -2 -14 -4 -31 -4 -16 0 -28 4 -25 9 5 8 56 3 56 -5z m-655 -4 c3 -5 4 -10 1 -10 -3 0 -8 5 -11 10 -3 6 -4 10 -1 10 3 0 8 -4 11 -10z m82 3 c-4 -3 -10 -3 -14 0 -3 4 0 7 7 7 7 0 10 -3 7 -7z m-580 -40 c-4 -3 -7 0 -7 7 0 7 3 10 7 7 3 -4 3 -10 0 -14z m820 10 c-4 -3 -10 -3 -14 0 -3 4 0 7 7 7 7 0 10 -3 7 -7z m240 0 c-4 -3 -10 -3 -14 0 -3 4 0 7 7 7 7 0 10 -3 7 -7z m630 0 c-4 -3 -10 -3 -14 0 -3 4 0 7 7 7 7 0 10 -3 7 -7z m-1064 -10 c-7 -2 -21 -2 -30 0 -10 3 -4 5 12 5 17 0 24 -2 18 -5z m510 0 c-7 -2 -21 -2 -30 0 -10 3 -4 5 12 5 17 0 24 -2 18 -5z m490 0 c-7 -2 -21 -2 -30 0 -10 3 -4 5 12 5 17 0 24 -2 18 -5z m-1703 -27 c0 -3 -5 -8 -12 -12 -7 -4 -8 -3 -4 4 7 12 16 16 16 8z m2050 -29 c0 -12 -5 -29 -10 -37 -7 -11 -10 -3 -10 28 0 26 4 41 10 37 6 -3 10 -16 10 -28z m-63 -34 c-4 -3 -7 0 -7 7 0 7 3 10 7 7 3 -4 3 -10 0 -14z m-1672 -13 c4 -6 -5 -10 -20 -10 -15 0 -24 4 -20 10 3 6 12 10 20 10 8 0 17 -4 20 -10z m1702 3 c-4 -3 -10 -3 -14 0 -3 4 0 7 7 7 7 0 10 -3 7 -7z m-2150 -10 c-4 -3 -10 -3 -14 0 -3 4 0 7 7 7 7 0 10 -3 7 -7z m40 -40 c-4 -3 -10 -3 -14 0 -3 4 0 7 7 7 7 0 10 -3 7 -7z m-68 -7 c-7 -7 -229 -9 -236 -2 -4 3 49 6 117 6 68 0 121 -2 119 -4z m-4 -276 c13 -5 -23 -9 -97 -9 -73 -1 -118 3 -118 9 0 12 186 12 215 0z m642 3 c-4 -3 -10 -3 -14 0 -3 4 0 7 7 7 7 0 10 -3 7 -7z m600 1 c-3 -3 -12 -4 -19 -1 -8 3 -5 6 6 6 11 1 17 -2 13 -5z m323 -4 c0 -5 -14 -10 -31 -10 -17 0 -28 4 -24 10 3 6 17 10 31 10 13 0 24 -4 24 -10z m657 3 c-4 -3 -10 -3 -14 0 -3 4 0 7 7 7 7 0 10 -3 7 -7z m470 0 c-4 -3 -10 -3 -14 0 -3 4 0 7 7 7 7 0 10 -3 7 -7z m-1980 -10 c-4 -3 -10 -3 -14 0 -3 4 0 7 7 7 7 0 10 -3 7 -7z m2050 0 c-4 -3 -10 -3 -14 0 -3 4 0 7 7 7 7 0 10 -3 7 -7z m-957 -7 c0 -3 -5 -8 -12 -12 -7 -4 -8 -3 -4 4 7 12 16 16 16 8z m65 -24 c-3 -3 -11 0 -18 7 -9 10 -8 11 6 5 10 -3 15 -9 12 -12z m-1355 5 c0 -2 -10 -12 -22 -23 l-23 -19 19 23 c18 21 26 27 26 19z m140 -1 c0 -11 -19 -15 -25 -6 -3 5 1 10 9 10 9 0 16 -2 16 -4z m135 -16 c10 -11 16 -20 13 -20 -3 0 -13 9 -23 20 -10 11 -16 20 -13 20 3 0 13 -9 23 -20z m546 -3 c-10 -9 -11 -8 -5 6 3 10 9 15 12 12 3 -3 0 -11 -7 -18z m739 20 c0 -2 -10 -12 -22 -23 l-23 -19 19 23 c18 21 26 27 26 19z m241 -20 c-10 -9 -11 -8 -5 6 3 10 9 15 12 12 3 -3 0 -11 -7 -18z m-1014 6 c-4 -3 -10 -3 -14 0 -3 4 0 7 7 7 7 0 10 -3 7 -7z m860 0 c-4 -3 -10 -3 -14 0 -3 4 0 7 7 7 7 0 10 -3 7 -7z m120 0 c-4 -3 -10 -3 -14 0 -3 4 0 7 7 7 7 0 10 -3 7 -7z m470 0 c-4 -3 -10 -3 -14 0 -3 4 0 7 7 7 7 0 10 -3 7 -7z m-2710 -10 c-4 -3 -10 -3 -14 0 -3 4 0 7 7 7 7 0 10 -3 7 -7z m1733 3 c0 -3 -5 -8 -12 -12 -7 -4 -8 -3 -4 4 7 12 16 16 16 8z m807 -13 c-4 -3 -7 0 -7 7 0 7 3 10 7 7 3 -4 3 -10 0 -14z m-2740 -385 c-1 -73 -3 -14 -3 132 0 146 2 205 3 133 2 -73 2 -193 0 -265z m363 367 c13 -14 21 -25 18 -25 -2 0 -15 11 -28 25 -13 14 -21 25 -18 25 2 0 15 -11 28 -25z m920 11 c0 -3 -5 -8 -12 -12 -7 -4 -8 -3 -4 4 7 12 16 16 16 8z m-970 -41 c13 -14 21 -25 18 -25 -2 0 -15 11 -28 25 -13 14 -21 25 -18 25 2 0 15 -11 28 -25z m1580 11 c0 -3 -5 -8 -12 -12 -7 -4 -8 -3 -4 4 7 12 16 16 16 8z m60 -9 c0 -2 -15 -16 -32 -33 l-33 -29 29 33 c28 30 36 37 36 29z m-1013 -34 c-4 -3 -7 0 -7 7 0 7 3 10 7 7 3 -4 3 -10 0 -14z m1280 -10 c-4 -3 -7 0 -7 7 0 7 3 10 7 7 3 -4 3 -10 0 -14z m-1220 -10 c-4 -3 -7 0 -7 7 0 7 3 10 7 7 3 -4 3 -10 0 -14z m-400 -10 c-4 -3 -7 0 -7 7 0 7 3 10 7 7 3 -4 3 -10 0 -14z m630 0 c-4 -3 -7 0 -7 7 0 7 3 10 7 7 3 -4 3 -10 0 -14z m613 13 c0 -3 -5 -8 -12 -12 -7 -4 -8 -3 -4 4 7 12 16 16 16 8z m320 -27 c0 -11 -4 -18 -10 -14 -5 3 -7 12 -3 20 7 21 13 19 13 -6z m-1743 -6 c-4 -3 -7 0 -7 7 0 7 3 10 7 7 3 -4 3 -10 0 -14z m530 -5 c-3 -8 -6 -5 -6 6 -1 11 2 17 5 13 3 -3 4 -12 1 -19z m-300 -55 c-2 -16 -4 -5 -4 22 0 28 2 40 4 28 2 -13 2 -35 0 -50z m522 20 c0 -40 -2 -44 -10 -25 -8 21 -3 72 7 72 2 0 4 -21 3 -47z m701 33 c0 -2 -8 -10 -17 -17 -16 -13 -17 -12 -4 4 13 16 21 21 21 13z m337 -13 c-4 -3 -7 0 -7 7 0 7 3 10 7 7 3 -4 3 -10 0 -14z m-407 3 c0 -2 -8 -10 -17 -17 -16 -13 -17 -12 -4 4 13 16 21 21 21 13z m-1373 -33 c-4 -3 -7 0 -7 7 0 7 3 10 7 7 3 -4 3 -10 0 -14z m523 -24 c0 -11 -4 -18 -10 -14 -5 3 -7 12 -3 20 7 21 13 19 13 -6z m-570 -40 c0 -27 -4 -48 -8 -45 -4 3 -7 24 -6 48 2 49 2 48 9 48 3 0 5 -23 5 -51z m1395 31 c10 -11 16 -20 13 -20 -3 0 -13 9 -23 20 -10 11 -16 20 -13 20 3 0 13 -9 23 -20z m628 13 c-35 -2 -91 -2 -125 0 -35 2 -7 3 62 3 69 0 97 -1 63 -3z m-243 -19 c0 -8 -5 -12 -10 -9 -6 4 -8 11 -5 16 9 14 15 11 15 -7z m-1563 -11 c-4 -3 -7 0 -7 7 0 7 3 10 7 7 3 -4 3 -10 0 -14z m1263 -8 c13 -14 21 -25 18 -25 -2 0 -15 11 -28 25 -13 14 -21 25 -18 25 2 0 15 -11 28 -25z m347 8 c-4 -3 -7 0 -7 7 0 7 3 10 7 7 3 -4 3 -10 0 -14z m-980 -20 c-4 -3 -7 0 -7 7 0 7 3 10 7 7 3 -4 3 -10 0 -14z m1240 0 c-4 -3 -7 0 -7 7 0 7 3 10 7 7 3 -4 3 -10 0 -14z m-1470 -10 c-4 -3 -7 0 -7 7 0 7 3 10 7 7 3 -4 3 -10 0 -14z m1520 0 c-4 -3 -7 0 -7 7 0 7 3 10 7 7 3 -4 3 -10 0 -14z m270 -65 c-2 -18 -4 -6 -4 27 0 33 2 48 4 33 2 -15 2 -42 0 -60z m-1610 55 c-4 -3 -7 0 -7 7 0 7 3 10 7 7 3 -4 3 -10 0 -14z m678 -33 c10 -11 16 -20 13 -20 -3 0 -13 9 -23 20 -10 11 -16 20 -13 20 3 0 13 -9 23 -20z m-1428 -32 c-3 -8 -6 -5 -6 6 -1 11 2 17 5 13 3 -3 4 -12 1 -19z m1768 2 c3 -5 4 -10 1 -10 -3 0 -8 5 -11 10 -3 6 -4 10 -1 10 3 0 8 -4 11 -10z m-980 -10 c3 -5 4 -10 1 -10 -3 0 -8 5 -11 10 -3 6 -4 10 -1 10 3 0 8 -4 11 -10z m-255 -4 c0 -2 -8 -10 -17 -17 -16 -13 -17 -12 -4 4 13 16 21 21 21 13z m1026 -28 l29 -33 -32 29 c-31 28 -38 36 -30 36 2 0 16 -15 33 -32z m-1171 12 c3 -5 -3 -10 -15 -10 -12 0 -18 5 -15 10 3 6 10 10 15 10 5 0 12 -4 15 -10z m570 0 c3 -5 -3 -10 -15 -10 -12 0 -18 5 -15 10 3 6 10 10 15 10 5 0 12 -4 15 -10z m62 3 c-4 -3 -10 -3 -14 0 -3 4 0 7 7 7 7 0 10 -3 7 -7z m-762 -13 c3 -5 4 -10 1 -10 -3 0 -8 5 -11 10 -3 6 -4 10 -1 10 3 0 8 -4 11 -10z m560 0 c3 -5 4 -10 1 -10 -3 0 -8 5 -11 10 -3 6 -4 10 -1 10 3 0 8 -4 11 -10z m1128 3 c-7 -2 -21 -2 -30 0 -10 3 -4 5 12 5 17 0 24 -2 18 -5z m284 -25 c-3 -7 -5 -2 -5 12 0 14 2 19 5 13 2 -7 2 -19 0 -25z m-2240 5 c-4 -3 -7 0 -7 7 0 7 3 10 7 7 3 -4 3 -10 0 -14z m1514 0 c13 -16 12 -17 -3 -4 -10 7 -18 15 -18 17 0 8 8 3 21 -13z m356 -10 c-4 -3 -10 -3 -14 0 -3 4 0 7 7 7 7 0 10 -3 7 -7z m130 0 c-4 -3 -10 -3 -14 0 -3 4 0 7 7 7 7 0 10 -3 7 -7z m508 -3 c3 -5 4 -10 1 -10 -3 0 -8 5 -11 10 -3 6 -4 10 -1 10 3 0 8 -4 11 -10z m-2102 -7 c-7 -2 -21 -2 -30 0 -10 3 -4 5 12 5 17 0 24 -2 18 -5z m565 0 c-10 -2 -26 -2 -35 0 -10 3 -2 5 17 5 19 0 27 -2 18 -5z m975 0 c-7 -2 -21 -2 -30 0 -10 3 -4 5 12 5 17 0 24 -2 18 -5z m377 -50 c0 -27 -4 -43 -9 -37 -8 8 -4 84 5 84 2 0 4 -21 4 -47z m47 -5 c-2 -13 -4 -5 -4 17 -1 22 1 32 4 23 2 -10 2 -28 0 -40z m-2417 -22 c0 -2 -8 -10 -17 -17 -16 -13 -17 -12 -4 4 13 16 21 21 21 13z m2397 -23 c-4 -3 -10 -3 -14 0 -3 4 0 7 7 7 7 0 10 -3 7 -7z m-2570 -10 c-4 -3 -10 -3 -14 0 -3 4 0 7 7 7 7 0 10 -3 7 -7z m-52 -50 c-96 -7 -205 -7 -205 0 0 4 55 6 123 5 67 -1 104 -3 82 -5z m1538 -30 c-7 -2 -19 -2 -25 0 -7 3 -2 5 12 5 14 0 19 -2 13 -5z"/>
 </g>
<g id="layer103" fill="#223eae" stroke="none">
 <path d="M0 1575 l0 -1575 2800 0 2800 0 0 1575 0 1575 -2800 0 -2800 0 0 -1575z m1734 865 c5 -5 17 -10 26 -10 26 0 100 -58 100 -78 0 -10 3 -22 6 -25 10 -10 11 -80 2 -100 -5 -9 -27 -29 -49 -43 -31 -19 -52 -25 -97 -24 -180 4 -205 -5 -182 -65 9 -23 14 -25 67 -24 87 1 120 -7 163 -41 40 -31 53 -59 53 -109 0 -33 -10 -88 -17 -99 -6 -10 81 -25 95 -16 11 6 12 -27 1 -41 -4 -6 -18 -9 -32 -8 -69 7 -142 8 -146 1 -3 -4 -26 -8 -51 -8 -119 0 -203 67 -203 161 0 39 32 110 47 105 7 -3 10 1 6 10 -3 7 0 14 6 14 6 0 11 5 11 10 0 6 -9 10 -20 10 -24 0 -54 60 -45 90 4 12 12 19 19 17 18 -7 14 38 -5 59 -27 31 -35 57 -34 101 2 66 24 90 110 121 35 13 154 7 169 -8z m-883 -214 c61 -7 135 -55 171 -110 42 -65 50 -94 49 -186 -1 -138 -22 -211 -75 -264 -67 -67 -95 -74 -299 -77 l-122 -1 -3 327 -2 327 122 -5 c68 -3 139 -8 159 -11z m444 -231 l0 -245 -30 0 -30 0 0 245 0 245 30 0 30 0 0 -245z m994 224 c12 -11 17 -26 14 -39 -6 -23 -14 -25 -31 -8 -6 6 -41 11 -80 11 -86 0 -124 -24 -141 -87 -23 -88 -36 -81 142 -84 l157 -3 -5 -65 c-5 -76 -37 -136 -91 -173 -46 -32 -155 -27 -199 7 -39 31 -75 83 -82 118 -12 56 -9 192 5 206 6 6 12 21 12 31 0 25 63 87 88 87 12 0 23 4 26 8 3 5 41 9 85 9 64 0 84 -3 100 -18z m432 -1 c37 -19 59 -64 59 -122 0 -37 -18 -69 -35 -62 -8 3 -12 0 -9 -7 2 -7 -10 -18 -28 -26 -18 -8 -59 -30 -90 -48 -55 -32 -58 -36 -58 -72 0 -66 40 -83 164 -69 24 2 30 -1 31 -20 3 -34 -13 -40 -100 -38 -90 1 -123 17 -150 73 -25 51 -14 101 30 145 20 21 49 41 64 45 34 8 89 45 108 73 13 19 13 26 2 47 -19 35 -57 51 -109 46 -25 -2 -53 -4 -62 -4 -10 0 -20 -4 -23 -10 -4 -5 -15 -9 -26 -9 -14 0 -19 7 -19 28 0 23 6 30 33 38 56 17 178 13 218 -8z m449 7 c8 -5 8 -11 0 -20 -6 -7 -10 -17 -9 -21 3 -20 -3 -23 -28 -13 -55 22 -81 20 -103 -8 -20 -26 -21 -35 -15 -192 l5 -166 61 -3 c56 -3 60 -5 57 -25 -3 -20 -9 -22 -64 -22 l-61 0 5 -41 c5 -48 -14 -74 -51 -67 -22 4 -24 8 -19 54 l5 49 -42 0 c-38 0 -41 2 -41 28 0 26 2 27 38 24 l37 -4 0 190 0 191 30 31 c30 32 31 32 107 27 43 -3 83 -9 88 -12z m1808 -184 c3 -10 -2 -11 -19 -6 -24 7 -24 7 -4 -10 11 -9 15 -14 9 -11 -6 3 -21 -5 -33 -18 -18 -19 -20 -26 -9 -32 7 -4 10 -4 6 1 -9 9 9 35 24 35 7 0 6 -5 -1 -13 -6 -8 -8 -24 -6 -37 5 -25 35 -62 35 -43 0 6 -6 16 -14 22 -8 7 -13 20 -11 29 2 9 4 21 4 25 1 5 6 5 12 1 8 -5 8 -9 -1 -14 -8 -5 -8 -10 -2 -14 5 -3 12 1 16 9 3 8 1 17 -4 20 -6 4 -10 11 -10 17 0 6 7 5 18 -3 14 -11 15 -11 5 1 -16 17 -17 30 -3 30 6 0 14 -10 19 -22 5 -13 21 -36 37 -53 15 -16 26 -31 25 -33 -6 -6 22 -62 31 -62 5 0 7 -4 4 -9 -4 -5 -1 -22 5 -38 7 -15 11 -35 10 -45 -1 -9 3 -19 9 -23 13 -8 13 -152 0 -160 -6 -4 -8 -14 -6 -23 3 -10 -1 -30 -9 -46 -8 -15 -12 -32 -9 -37 3 -5 1 -9 -4 -9 -9 0 -35 -52 -33 -64 0 -3 -11 -18 -24 -32 -14 -15 -25 -32 -25 -37 0 -6 -8 -18 -17 -27 -16 -15 -20 -13 -55 22 -21 21 -38 41 -38 46 0 4 16 29 35 56 19 27 32 53 29 57 -3 5 0 9 6 9 6 0 8 5 5 10 -3 6 -1 10 4 10 6 0 10 3 10 8 -1 4 0 10 1 15 1 4 4 12 5 17 1 6 4 12 5 15 1 3 4 17 6 33 1 15 5 45 8 67 2 22 0 45 -6 52 -6 7 -8 20 -4 28 7 20 -32 125 -50 132 -8 3 -11 9 -8 14 3 5 -2 12 -10 15 -9 3 -16 13 -16 20 0 8 -8 18 -17 21 -33 12 -32 28 5 66 36 37 52 42 60 18z m-87 -207 c20 -32 34 -64 32 -70 -2 -7 0 -15 6 -19 13 -7 15 -101 3 -109 -5 -3 -9 -20 -10 -38 0 -18 -6 -34 -11 -36 -6 -2 -9 -8 -5 -13 3 -5 0 -9 -7 -9 -7 0 -10 -2 -7 -5 7 -7 -53 -75 -66 -75 -13 0 -76 61 -76 73 0 6 7 15 15 21 20 14 27 45 32 133 4 70 4 72 -31 110 l-35 38 42 42 c37 39 43 42 61 29 12 -7 37 -40 57 -72z m-221 -84 c0 -5 -6 -10 -13 -10 -8 0 -22 -9 -32 -20 -18 -20 -18 -21 10 -50 36 -37 49 -29 42 26 -4 43 5 59 17 28 9 -24 7 -47 -6 -77 -13 -27 -28 -36 -28 -17 0 6 -5 10 -12 10 -13 0 -58 39 -58 51 0 4 12 21 28 37 27 30 52 40 52 22z m-5 -52 c-1 -13 -3 -27 -4 -32 0 -5 -10 -1 -21 9 -19 17 -19 19 -4 36 20 23 32 17 29 -13z m-3370 -88 c0 -49 -1 -50 -30 -50 -29 0 -30 1 -30 50 0 49 0 50 30 50 30 0 30 -1 30 -50z m-440 -294 c23 -4 41 -11 103 -38 43 -19 102 -87 102 -118 0 -9 5 -21 12 -28 22 -22 12 -272 -12 -296 -6 -6 -10 -17 -10 -26 0 -23 -51 -75 -91 -93 -80 -35 -68 -33 -249 -37 l-125 -2 -3 313 c-1 173 0 320 3 328 4 11 28 13 128 7 67 -3 131 -8 142 -10z m690 -10 c49 -25 70 -48 99 -111 22 -48 15 -218 -11 -253 -11 -15 -22 -34 -25 -43 -4 -9 -27 -26 -52 -39 -54 -26 -152 -26 -200 -1 -42 23 -96 81 -102 110 -3 14 -8 33 -11 41 -10 28 -10 145 0 158 5 7 7 15 4 18 -3 4 2 23 12 43 35 67 84 95 173 99 51 2 73 -2 113 -22z m594 3 c12 -11 17 -26 14 -39 -6 -23 -4 -23 -40 -9 -35 14 -122 19 -129 7 -3 -4 -13 -8 -22 -8 -42 -1 -94 -116 -86 -190 10 -105 29 -144 77 -159 37 -13 168 -20 161 -10 -2 4 0 10 5 13 5 3 14 -7 19 -24 14 -40 5 -44 -103 -46 -110 -2 -167 22 -201 87 -28 55 -35 231 -11 256 4 3 7 14 7 24 0 25 58 89 93 104 16 7 66 12 112 12 68 1 88 -3 104 -18z m229 -324 c-2 -221 -7 -345 -13 -345 -5 0 -21 3 -34 7 l-23 6 3 338 4 339 33 0 33 0 -3 -345z m276 330 c10 -7 15 -18 11 -24 -4 -7 0 -8 10 -4 12 4 10 -2 -7 -19 -12 -14 -48 -54 -78 -88 -30 -34 -68 -75 -83 -90 l-28 -27 36 -39 c21 -21 64 -67 97 -101 33 -34 57 -66 53 -72 -3 -6 -21 -11 -40 -11 -27 0 -38 7 -56 33 -13 17 -39 48 -58 68 -106 109 -104 105 -87 136 13 25 62 85 115 139 12 12 21 25 21 29 0 8 62 83 70 84 3 0 13 -6 24 -14z m474 0 c19 -6 22 -12 17 -34 -9 -35 -8 -34 -46 -18 -64 26 -189 2 -189 -36 0 -6 -6 -18 -14 -26 -14 -16 -21 -48 -18 -83 2 -16 17 -18 158 -18 l155 0 -3 -52 c-1 -29 -8 -64 -15 -78 -7 -14 -13 -32 -13 -41 0 -17 -43 -60 -77 -78 -27 -14 -140 -15 -148 -1 -3 6 -15 10 -25 10 -24 0 -79 70 -93 118 -16 58 -12 200 6 219 4 3 7 14 7 24 0 25 63 89 88 89 11 0 23 4 26 9 7 10 151 7 184 -4z m470 1 c8 -4 8 -14 3 -58 -1 -4 -13 -3 -28 3 -50 20 -79 19 -102 -2 -20 -19 -21 -29 -21 -196 l0 -175 70 4 70 4 0 -29 0 -29 -70 4 -70 4 0 -52 c0 -55 -7 -64 -47 -56 -21 4 -23 8 -17 58 l7 54 -29 -5 c-34 -6 -49 2 -58 31 -6 19 -2 21 34 20 l40 -1 1 179 c2 241 12 259 146 251 34 -2 66 -6 71 -9z"/>
 <path d="M1544 2363 c-37 -37 -40 -72 -10 -117 13 -21 23 -25 63 -24 27 1 67 -2 90 -6 81 -14 137 41 109 108 -18 44 -73 70 -155 72 -59 1 -65 -1 -97 -33z"/>
 <path d="M1602 2016 c-44 -16 -64 -48 -64 -101 0 -96 79 -142 175 -102 39 17 38 15 42 107 3 46 -29 87 -74 100 -20 5 -38 9 -41 9 -3 -1 -20 -7 -38 -13z"/>
 <path d="M635 2167 c-3 -7 -4 -127 -3 -267 l3 -255 55 -3 c61 -4 161 13 200 33 80 42 113 111 113 240 0 152 -35 203 -173 249 -56 19 -189 21 -195 3z"/>
 <path d="M2039 1958 c-7 -26 -2 -59 16 -92 19 -36 28 -43 73 -54 46 -11 57 -11 88 4 42 20 51 35 55 94 l4 45 -117 3 c-65 1 -118 1 -119 0z"/>
 <path d="M4909 2003 l-24 -28 28 24 c15 14 27 26 27 28 0 8 -8 1 -31 -24z"/>
 <path d="M4999 1980 c-1 -8 -1 -18 0 -22 1 -8 -16 -12 -34 -8 -5 1 0 -9 13 -23 13 -14 19 -26 13 -28 -7 -3 0 -29 16 -69 23 -54 28 -80 27 -150 0 -107 -24 -174 -99 -276 -15 -20 -14 -24 17 -56 l32 -35 29 36 c117 147 140 378 53 549 -31 61 -65 103 -67 82z m34 -67 c-4 -10 -2 -14 5 -9 12 7 28 -30 23 -54 -2 -8 1 -11 5 -7 13 13 44 -112 44 -176 0 -68 -17 -145 -37 -168 -8 -9 -13 -20 -12 -25 3 -18 -1 -34 -8 -33 -20 3 -26 -2 -13 -11 11 -7 11 -10 2 -10 -7 0 -10 -5 -6 -12 5 -7 3 -8 -6 -3 -8 5 -11 3 -8 -6 3 -8 -4 -27 -15 -42 l-19 -28 -29 27 -28 27 32 41 c17 23 36 44 42 48 5 4 6 8 2 8 -5 0 -2 12 6 28 25 46 39 128 35 206 -2 42 -7 76 -11 76 -5 0 -6 4 -3 8 3 5 -6 27 -19 50 -14 25 -20 44 -14 48 6 4 3 14 -8 27 -10 11 -12 17 -5 13 11 -7 16 4 13 29 -1 6 8 0 18 -13 12 -13 17 -30 14 -39z"/>
 <path d="M5006 1918 c3 -5 10 -6 15 -3 13 9 11 12 -6 12 -8 0 -12 -4 -9 -9z"/>
 <path d="M5006 1891 c-3 -5 4 -20 17 -33 24 -27 29 -41 29 -75 0 -13 3 -23 7 -23 3 0 6 -34 6 -75 0 -41 -4 -75 -9 -75 -4 0 -6 -9 -3 -20 3 -13 1 -18 -6 -13 -6 4 -8 0 -4 -9 3 -9 -3 -32 -13 -51 -10 -19 -17 -37 -14 -39 2 -3 -14 -25 -36 -49 l-39 -43 21 -23 c11 -12 26 -19 31 -16 7 4 6 8 -3 11 -22 8 -41 30 -31 36 5 3 12 -2 15 -11 6 -14 9 -13 24 8 9 13 16 27 15 31 -2 4 8 16 22 26 13 11 22 22 18 25 -3 4 -1 13 5 20 7 8 9 17 5 20 -3 4 -2 7 4 7 9 0 11 6 15 50 1 11 6 20 10 20 4 0 8 34 8 75 0 41 -4 75 -9 75 -6 0 -10 8 -10 18 -1 38 -5 52 -13 52 -4 0 -8 3 -7 8 1 4 -2 16 -5 27 -4 11 -6 24 -6 29 2 9 -19 26 -32 26 -4 0 -9 -4 -12 -9z m19 -11 c3 -5 4 -10 1 -10 -3 0 -8 5 -11 10 -3 6 -4 10 -1 10 3 0 8 -4 11 -10z m6 -393 c-10 -9 -11 -8 -5 6 3 10 9 15 12 12 3 -3 0 -11 -7 -18z m-31 -61 c0 -2 -8 -10 -17 -17 -16 -13 -17 -12 -4 4 13 16 21 21 21 13z"/>
 <path d="M5004 1378 c-4 -7 -3 -8 4 -4 7 4 12 9 12 12 0 8 -9 4 -16 -8z"/>
 <path d="M4776 1871 l-36 -37 26 -25 c44 -41 57 -76 52 -143 -3 -44 -10 -71 -27 -95 l-24 -33 36 -35 35 -36 30 48 c61 99 66 227 12 323 -43 74 -59 79 -104 33z m91 -34 c13 -22 22 -41 19 -45 -3 -3 -1 -11 5 -18 14 -17 14 -146 1 -171 -6 -11 -8 -24 -4 -28 4 -5 1 -5 -7 0 -9 5 -12 3 -9 -6 3 -8 -4 -31 -15 -52 l-21 -37 -28 27 -28 27 22 23 c12 13 18 23 14 23 -3 0 1 14 10 32 24 47 14 114 -25 171 -18 26 -37 47 -42 47 -6 0 4 15 23 34 38 39 45 36 85 -27z"/>
 <path d="M4791 1857 c-19 -22 -20 -25 -6 -37 8 -7 18 -10 22 -7 3 4 12 -5 20 -19 18 -37 16 -40 -8 -13 l-20 24 17 -27 c9 -16 20 -28 24 -28 4 0 8 -34 9 -76 1 -46 -2 -74 -7 -70 -6 3 -13 -1 -16 -10 -4 -10 -2 -13 7 -8 9 5 9 4 0 -7 -7 -7 -13 -22 -13 -32 0 -14 -5 -17 -17 -13 -14 6 -13 2 4 -16 19 -18 25 -20 35 -9 7 7 9 12 3 11 -22 -5 -24 1 -8 19 9 11 20 18 25 15 4 -3 5 1 2 9 -3 8 0 18 5 22 6 3 9 11 6 16 -4 5 -2 9 3 9 9 0 11 9 12 73 0 51 -2 65 -18 94 -14 26 -16 45 -2 23 7 -10 10 -11 10 -2 0 7 -7 15 -15 18 -8 4 -12 11 -8 17 4 6 0 8 -10 4 -11 -4 -17 -1 -17 9 0 9 5 12 13 8 8 -5 8 -2 -2 9 -18 22 -23 22 -50 -6z m27 2 c-10 -5 -18 -17 -18 -25 0 -8 -5 -12 -11 -9 -12 8 17 45 35 45 6 0 3 -5 -6 -11z"/>
 <path d="M4641 1707 c-6 -8 -8 -17 -4 -20 12 -13 22 -7 20 13 -2 24 -1 24 -16 7z"/>
 <path d="M652 1003 l3 -268 75 1 c98 0 125 5 182 32 76 36 97 84 102 232 6 175 -97 270 -293 270 l-71 0 2 -267z"/>
 <path d="M1430 1271 c-48 -7 -100 -36 -100 -55 0 -6 -6 -23 -14 -37 -18 -34 -15 -155 5 -199 23 -51 50 -70 110 -79 49 -8 57 -7 88 16 60 46 81 128 60 239 -10 56 -15 65 -54 93 -24 17 -45 30 -47 30 -1 -1 -23 -5 -48 -8z"/>
 <path d="M2870 1021 c0 -17 7 -46 16 -65 14 -28 27 -37 69 -50 36 -12 59 -14 76 -8 42 16 77 71 75 117 l-1 30 -117 3 -118 3 0 -30z"/>
 <path d="M3310 870 c0 -7 3 -10 7 -7 3 4 3 10 0 14 -4 3 -7 0 -7 -7z"/>
 </g>
<g id="layer104" fill="#4184f3" stroke="none">
 <path d="M0 1575 l0 -1575 2800 0 2800 0 0 1575 0 1575 -2800 0 -2800 0 0 -1575z m1779 848 c67 -35 92 -68 98 -130 5 -43 2 -53 -23 -82 -38 -46 -63 -53 -186 -52 -84 1 -110 -2 -122 -15 -20 -19 -20 -24 -1 -51 13 -19 25 -22 89 -21 79 0 115 -13 154 -55 39 -41 49 -134 20 -189 -8 -16 -3 -18 47 -18 46 0 55 -3 55 -17 0 -10 -4 -22 -8 -28 -4 -6 -73 -11 -160 -12 -169 -3 -189 2 -235 56 -14 17 -28 45 -32 62 -11 47 3 116 29 146 l24 27 -29 27 c-35 32 -37 66 -8 103 21 27 21 27 1 49 -78 87 -47 191 69 226 56 17 157 5 218 -26z m-866 -216 c66 -31 104 -68 135 -135 20 -45 24 -69 24 -151 0 -165 -39 -253 -136 -304 -35 -18 -63 -22 -199 -27 -87 -3 -161 -3 -163 -1 -2 2 -4 151 -4 329 l0 325 145 -6 c125 -5 153 -9 198 -30z m387 -212 l0 -245 -35 0 -35 0 0 245 0 245 35 0 35 0 0 -245z m1000 229 c6 -6 8 -23 4 -38 -5 -20 -11 -25 -23 -20 -9 4 -45 9 -81 11 -53 3 -71 0 -98 -17 -34 -21 -58 -63 -64 -115 l-3 -30 158 -3 157 -3 0 -42 c0 -94 -41 -172 -107 -206 -28 -14 -123 -14 -160 0 -98 37 -150 192 -109 330 33 114 91 151 228 147 48 -2 92 -8 98 -14z m405 6 c50 -19 75 -58 75 -115 0 -69 -22 -95 -115 -140 -106 -50 -129 -92 -79 -141 23 -24 31 -26 97 -23 69 4 72 3 75 -20 5 -33 -12 -41 -96 -41 -116 0 -172 42 -172 131 0 63 32 100 124 145 39 19 77 42 84 51 18 25 15 60 -9 84 -19 19 -29 21 -93 16 -39 -4 -83 -9 -98 -13 -26 -6 -28 -4 -28 25 0 26 5 32 33 40 43 13 170 13 202 1z m462 -3 c16 -10 -1 -63 -18 -58 -8 2 -35 6 -60 8 -42 5 -49 3 -64 -21 -15 -22 -16 -44 -10 -186 l8 -160 63 0 64 0 0 -30 0 -30 -65 0 -65 0 -1 -42 c-1 -24 -1 -49 0 -55 2 -15 -4 -15 -46 -7 -29 6 -30 7 -25 55 l5 49 -42 0 c-39 0 -41 2 -41 29 0 27 3 30 38 33 l37 3 -4 162 c-5 242 9 267 140 261 41 -3 80 -8 86 -11z m1912 -316 c58 -110 75 -245 46 -369 -18 -75 -44 -129 -97 -201 l-40 -53 -44 43 c-24 24 -44 47 -44 52 0 5 11 23 26 39 123 148 121 373 -7 512 l-50 55 42 42 42 43 48 -53 c26 -29 61 -79 78 -110z m-220 -16 c73 -83 96 -182 68 -289 -16 -59 -73 -156 -92 -156 -6 0 -28 18 -50 40 l-38 39 26 50 c46 84 34 181 -30 230 l-27 22 49 49 c27 28 52 50 56 50 4 0 21 -16 38 -35z m-175 -157 c9 -12 16 -32 16 -45 0 -29 -20 -73 -34 -73 -13 0 -76 61 -76 74 0 15 52 66 66 66 7 0 20 -10 28 -22z m-3384 -128 l0 -50 -35 0 -35 0 0 50 0 50 35 0 35 0 0 -50z m-389 -305 c65 -22 113 -67 146 -133 26 -52 28 -66 28 -167 0 -135 -19 -196 -76 -254 -58 -58 -107 -70 -279 -72 l-145 -1 -3 313 c-1 173 0 320 3 328 8 19 260 9 326 -14z m656 -7 c28 -18 50 -45 68 -83 25 -50 27 -63 23 -148 -3 -79 -8 -100 -31 -139 -39 -67 -94 -91 -192 -86 -64 3 -79 7 -112 34 -52 41 -85 110 -90 192 -9 114 27 196 102 240 34 19 52 22 116 20 62 -3 83 -8 116 -30z m583 16 c6 -6 8 -23 4 -38 -5 -22 -10 -25 -28 -19 -11 4 -53 8 -92 8 -58 0 -76 -4 -94 -20 -72 -64 -81 -236 -16 -312 19 -22 33 -27 84 -31 33 -2 74 0 91 6 28 10 30 9 40 -19 9 -27 8 -31 -15 -39 -41 -16 -172 -12 -210 6 -75 36 -106 105 -106 235 0 112 41 190 117 225 36 17 208 15 225 -2z m220 -329 c0 -366 2 -352 -47 -339 l-23 6 0 339 0 339 35 0 35 0 0 -345z m281 324 l29 -20 -100 -112 c-55 -62 -100 -114 -100 -118 0 -3 43 -51 95 -106 52 -56 95 -104 95 -107 0 -3 -19 -6 -42 -6 -42 1 -46 4 -139 108 l-96 108 110 137 c61 75 113 137 115 137 2 0 17 -9 33 -21z m479 5 c6 -6 8 -23 4 -38 -5 -20 -11 -25 -23 -20 -37 16 -138 16 -169 0 -36 -19 -72 -81 -72 -126 l0 -30 155 0 155 0 0 -48 c0 -98 -56 -190 -126 -208 -46 -12 -143 1 -172 23 -71 53 -102 150 -85 269 21 146 84 197 235 192 48 -2 92 -8 98 -14z m461 -1 c7 -7 9 -22 5 -37 -6 -23 -9 -24 -32 -16 -38 15 -91 12 -109 -6 -13 -14 -15 -41 -13 -182 l3 -167 68 -3 c67 -3 67 -3 67 -32 0 -29 0 -29 -67 -32 l-68 -3 -3 -54 c-3 -49 -5 -53 -25 -47 -12 3 -28 6 -35 6 -9 0 -11 13 -6 50 l7 50 -42 0 c-29 0 -41 4 -41 14 0 8 -3 21 -6 30 -5 13 2 16 34 16 l41 0 3 191 3 191 29 25 c27 23 36 25 102 21 41 -2 79 -9 85 -15z"/>
 <path d="M1590 2390 c-45 -11 -70 -43 -70 -89 0 -69 16 -78 130 -80 56 -1 110 4 121 10 53 28 39 113 -22 141 -44 20 -115 28 -159 18z"/>
 <path d="M1593 2010 c-26 -11 -53 -59 -53 -95 0 -69 62 -121 132 -112 48 6 64 19 79 64 32 97 -62 182 -158 143z"/>
 <path d="M640 1909 l0 -261 108 4 c113 4 151 16 192 61 42 44 54 86 54 197 1 90 -2 111 -21 147 -44 82 -112 113 -250 113 l-83 0 0 -261z"/>
 <path d="M2039 1953 c-6 -45 20 -105 56 -129 31 -20 107 -23 129 -5 25 21 44 61 48 101 l3 35 -117 3 c-65 1 -118 -1 -119 -5z"/>
 <path d="M655 1247 c-3 -7 -4 -123 -3 -257 l3 -245 105 0 c87 0 112 4 145 21 74 38 107 114 108 245 0 122 -57 212 -150 238 -55 16 -202 14 -208 -2z"/>
 <path d="M1355 1237 c-44 -44 -62 -126 -46 -206 19 -94 59 -131 144 -131 42 0 54 5 82 33 55 55 70 190 29 268 -25 48 -61 69 -121 69 -49 0 -59 -4 -88 -33z"/>
 <path d="M2870 1020 c0 -97 127 -164 193 -101 25 23 53 104 42 122 -4 5 -58 9 -121 9 l-114 0 0 -30z"/>
 </g>
<g id="layer105" fill="#ffffff" stroke="none">
 <path d="M0 1575 l0 -1575 2800 0 2800 0 0 1575 0 1575 -2800 0 -2800 0 0 -1575z m1779 848 c67 -35 92 -68 98 -130 5 -43 2 -53 -23 -82 -38 -46 -63 -53 -186 -52 -84 1 -110 -2 -122 -15 -20 -19 -20 -24 -1 -51 13 -19 25 -22 89 -21 79 0 115 -13 154 -55 39 -41 49 -134 20 -189 -8 -16 -3 -18 47 -18 46 0 55 -3 55 -17 0 -10 -4 -22 -8 -28 -4 -6 -73 -11 -160 -12 -169 -3 -189 2 -235 56 -14 17 -28 45 -32 62 -11 47 3 116 29 146 l24 27 -29 27 c-35 32 -37 66 -8 103 21 27 21 27 1 49 -78 87 -47 191 69 226 56 17 157 5 218 -26z m3387 -99 c-22 -88 -38 -133 -55 -150 l-23 -24 -798 0 -799 0 -26 23 c-19 17 -32 48 -55 137 -16 63 -30 121 -30 128 0 9 188 12 909 12 l909 0 -32 -126z m-4253 -117 c66 -31 104 -68 135 -135 20 -45 24 -69 24 -151 0 -165 -39 -253 -136 -304 -35 -18 -63 -22 -199 -27 -87 -3 -161 -3 -163 -1 -2 2 -4 151 -4 329 l0 325 145 -6 c125 -5 153 -9 198 -30z m387 -212 l0 -245 -35 0 -35 0 0 245 0 245 35 0 35 0 0 -245z m1000 229 c6 -6 8 -23 4 -38 -5 -20 -11 -25 -23 -20 -9 4 -45 9 -81 11 -53 3 -71 0 -98 -17 -34 -21 -58 -63 -64 -115 l-3 -30 158 -3 157 -3 0 -42 c0 -94 -41 -172 -107 -206 -28 -14 -123 -14 -160 0 -98 37 -150 192 -109 330 33 114 91 151 228 147 48 -2 92 -8 98 -14z m405 6 c50 -19 75 -58 75 -115 0 -69 -22 -95 -115 -140 -106 -50 -129 -92 -79 -141 23 -24 31 -26 97 -23 69 4 72 3 75 -20 5 -33 -12 -41 -96 -41 -116 0 -172 42 -172 131 0 63 32 100 124 145 39 19 77 42 84 51 18 25 15 60 -9 84 -19 19 -29 21 -93 16 -39 -4 -83 -9 -98 -13 -26 -6 -28 -4 -28 25 0 26 5 32 33 40 43 13 170 13 202 1z m462 -3 c16 -10 -1 -63 -18 -58 -8 2 -35 6 -60 8 -42 5 -49 3 -64 -21 -15 -22 -16 -44 -10 -186 l8 -160 63 0 64 0 0 -30 0 -30 -65 0 -65 0 -1 -42 c-1 -24 -1 -49 0 -55 2 -15 -4 -15 -46 -7 -29 6 -30 7 -25 55 l5 49 -42 0 c-39 0 -41 2 -41 29 0 27 3 30 38 33 l37 3 -4 162 c-5 242 9 267 140 261 41 -3 80 -8 86 -11z m715 -504 l388 -387 50 49 50 50 168 -168 167 -167 -158 -157 -157 -158 -170 170 -170 170 57 57 57 57 -387 383 c-421 416 -416 410 -362 463 52 53 47 57 467 -362z m1197 188 c58 -110 75 -245 46 -369 -18 -75 -44 -129 -97 -201 l-40 -53 -44 43 c-24 24 -44 47 -44 52 0 5 11 23 26 39 123 148 121 373 -7 512 l-50 55 42 42 42 43 48 -53 c26 -29 61 -79 78 -110z m-220 -16 c73 -83 96 -182 68 -289 -16 -59 -73 -156 -92 -156 -6 0 -28 18 -50 40 l-38 39 26 50 c46 84 34 181 -30 230 l-27 22 49 49 c27 28 52 50 56 50 4 0 21 -16 38 -35z m-175 -157 c9 -12 16 -32 16 -45 0 -29 -20 -73 -34 -73 -13 0 -76 61 -76 74 0 15 52 66 66 66 7 0 20 -10 28 -22z m-3384 -128 l0 -50 -35 0 -35 0 0 50 0 50 35 0 35 0 0 -50z m3392 -197 c98 -98 181 -188 185 -201 14 -56 -42 -105 -95 -83 -16 7 -106 90 -200 185 -159 160 -172 175 -172 209 0 42 27 67 74 67 25 0 57 -28 208 -177z m-3781 -108 c65 -22 113 -67 146 -133 26 -52 28 -66 28 -167 0 -135 -19 -196 -76 -254 -58 -58 -107 -70 -279 -72 l-145 -1 -3 313 c-1 173 0 320 3 328 8 19 260 9 326 -14z m656 -7 c28 -18 50 -45 68 -83 25 -50 27 -63 23 -148 -3 -79 -8 -100 -31 -139 -39 -67 -94 -91 -192 -86 -64 3 -79 7 -112 34 -52 41 -85 110 -90 192 -9 114 27 196 102 240 34 19 52 22 116 20 62 -3 83 -8 116 -30z m583 16 c6 -6 8 -23 4 -38 -5 -22 -10 -25 -28 -19 -11 4 -53 8 -92 8 -58 0 -76 -4 -94 -20 -72 -64 -81 -236 -16 -312 19 -22 33 -27 84 -31 33 -2 74 0 91 6 28 10 30 9 40 -19 9 -27 8 -31 -15 -39 -41 -16 -172 -12 -210 6 -75 36 -106 105 -106 235 0 112 41 190 117 225 36 17 208 15 225 -2z m220 -329 c0 -366 2 -352 -47 -339 l-23 6 0 339 0 339 35 0 35 0 0 -345z m281 324 l29 -20 -100 -112 c-55 -62 -100 -114 -100 -118 0 -3 43 -51 95 -106 52 -56 95 -104 95 -107 0 -3 -19 -6 -42 -6 -42 1 -46 4 -139 108 l-96 108 110 137 c61 75 113 137 115 137 2 0 17 -9 33 -21z m479 5 c6 -6 8 -23 4 -38 -5 -20 -11 -25 -23 -20 -37 16 -138 16 -169 0 -36 -19 -72 -81 -72 -126 l0 -30 155 0 155 0 0 -48 c0 -98 -56 -190 -126 -208 -46 -12 -143 1 -172 23 -71 53 -102 150 -85 269 21 146 84 197 235 192 48 -2 92 -8 98 -14z m461 -1 c7 -7 9 -22 5 -37 -6 -23 -9 -24 -32 -16 -38 15 -91 12 -109 -6 -13 -14 -15 -41 -13 -182 l3 -167 68 -3 c67 -3 67 -3 67 -32 0 -29 0 -29 -67 -32 l-68 -3 -3 -54 c-3 -49 -5 -53 -25 -47 -12 3 -28 6 -35 6 -9 0 -11 13 -6 50 l7 50 -42 0 c-29 0 -41 4 -41 14 0 8 -3 21 -6 30 -5 13 2 16 34 16 l41 0 3 191 3 191 29 25 c27 23 36 25 102 21 41 -2 79 -9 85 -15z m575 -405 c108 -108 186 -193 189 -208 9 -40 -27 -80 -73 -80 -33 0 -49 13 -214 178 -198 197 -212 219 -165 266 51 51 64 43 263 -156z"/>
 <path d="M1590 2390 c-45 -11 -70 -43 -70 -89 0 -69 16 -78 130 -80 56 -1 110 4 121 10 53 28 39 113 -22 141 -44 20 -115 28 -159 18z"/>
 <path d="M1593 2010 c-26 -11 -53 -59 -53 -95 0 -69 62 -121 132 -112 48 6 64 19 79 64 32 97 -62 182 -158 143z"/>
 <path d="M640 1909 l0 -261 108 4 c113 4 151 16 192 61 42 44 54 86 54 197 1 90 -2 111 -21 147 -44 82 -112 113 -250 113 l-83 0 0 -261z"/>
 <path d="M2039 1953 c-6 -45 20 -105 56 -129 31 -20 107 -23 129 -5 25 21 44 61 48 101 l3 35 -117 3 c-65 1 -118 -1 -119 -5z"/>
 <path d="M655 1247 c-3 -7 -4 -123 -3 -257 l3 -245 105 0 c87 0 112 4 145 21 74 38 107 114 108 245 0 122 -57 212 -150 238 -55 16 -202 14 -208 -2z"/>
 <path d="M1355 1237 c-44 -44 -62 -126 -46 -206 19 -94 59 -131 144 -131 42 0 54 5 82 33 55 55 70 190 29 268 -25 48 -61 69 -121 69 -49 0 -59 -4 -88 -33z"/>
 <path d="M2870 1020 c0 -97 127 -164 193 -101 25 23 53 104 42 122 -4 5 -58 9 -121 9 l-114 0 0 -30z"/>
 </g>

</svg>
